<svg xmlns="http://www.w3.org/2000/svg" viewBox="0 0 760 220" role="img" aria-labelledby="title desc">
  <title id="title">Oi wordmark with the finalized execution capsule</title>
  <desc id="desc">A compact Oi brand panel with a simplified orange execution capsule, a small module workspace, and the Oi wordmark.</desc>

  <rect width="760" height="220" rx="64" fill="#F7F2EA"/>

  <g transform="translate(28 33)">
    <ellipse cx="88" cy="158" rx="76" ry="10" fill="#17191F" opacity=".12"/>

    <g transform="translate(12 0)">
      <rect x="118" y="42" width="36" height="86" rx="18" fill="#7ED8C7" opacity=".9"/>
      <path d="M20 125c-14-9-19-23-16-43l7-45C14 16 31 4 53 4h71c25 0 43 16 43 41v70c0 22-15 36-40 36H48c-12 0-21-2-28-6Z" fill="#F26B4F"/>
      <path d="M17 103h143v25c0 14-10 19-28 19H45c-19 0-28-6-28-21v-23Z" fill="#FFC857"/>
      <path d="M37 121h57" stroke="#F7F2EA" stroke-linecap="round" stroke-width="6" opacity=".55"/>
      <ellipse cx="11" cy="100" rx="16" ry="31" transform="rotate(12 11 100)" fill="#F26B4F"/>
      <ellipse cx="160" cy="100" rx="16" ry="31" transform="rotate(-12 160 100)" fill="#F26B4F"/>
      <ellipse cx="57" cy="151" rx="30" ry="13" fill="#F26B4F"/>
      <ellipse cx="119" cy="151" rx="30" ry="13" fill="#F26B4F"/>
      <circle cx="62" cy="63" r="19" fill="#17191F"/>
      <rect x="101" y="44" width="23" height="42" rx="11.5" fill="#17191F"/>
    </g>

    <g transform="translate(0 148)">
      <rect x="0" y="0" width="46" height="14" rx="7" fill="#F7F2EA" stroke="#E8DCCB" stroke-width="2"/>
      <circle cx="12" cy="7" r="3" fill="#7ED8C7"/>
      <circle cx="23" cy="7" r="3" fill="#FFC857"/>
      <circle cx="34" cy="7" r="3" fill="#F26B4F"/>
      <path d="M53 7h24" stroke="#7ED8C7" stroke-width="3" stroke-linecap="round"/>
      <circle cx="84" cy="7" r="5" fill="#7ED8C7"/>
    </g>
  </g>

  <g fill="#17191F">
    <rect x="364" y="61" width="98" height="98" rx="38"/>
    <rect x="388" y="85" width="50" height="50" rx="20" fill="#F7F2EA"/>
    <rect x="503" y="83" width="34" height="74" rx="17"/>
    <circle cx="520" cy="62" r="11"/>
  </g>
  <rect x="365" y="174" width="98" height="10" rx="5" fill="#F26B4F"/>
  <circle cx="483" cy="179" r="5" fill="#7ED8C7"/>
</svg>
